<svg width="586" height="314" viewBox="0 0 586 314" fill="none" xmlns="http://www.w3.org/2000/svg">
<path d="M91 132.5L142.5 58H174L177 64L185 58H209L216.5 65L221 58L302 60L315.5 82L328.5 59.5L392 58.5L402.5 62L407 77.5L395.5 139.5L315.5 138.5L181 136.5H113.5L91 132.5Z" fill="#7AA0FF"/>
<path d="M173 148H270.5L424 147L430 157.5L456.5 147L509.959 147.5L510 147.5H510.5C524.127 148.606 529.821 152.579 535.5 167.5L516 210.5C507.597 221.279 501.871 226.203 488.5 231.5H463.5L457 245.5H423.5L428 231.5L129 230.5L123.5 229.5L144.5 196L155.5 177L166.5 158.5L173 148Z" fill="#C08FFF"/>
<path d="M138 152.5L147 141H150.5L153.5 153.5L163.5 155L165.5 158L153.5 168.5L152.5 181L150.5 184.5L139 178.5L129.5 184.5L125.5 181.5L131 168.5L124 155L138 152.5Z" fill="#F9E164"/>
<path d="M522 259L516.5 242L502 259L482 264L489 279L482 299L485.5 301L503 293.5L515.5 303.5H519.5L523 281.5L537.5 268V263L522 259Z" fill="#E5B845"/>
<path d="M155.3 3.54117C151.618 7.60866 150.135 8.42215 144.731 9.37921C142.579 9.76203 140.331 10.2884 139.758 10.5277C138.275 11.1498 138.371 12.3461 139.997 12.7289C143.536 13.5424 144.731 13.9252 145.592 14.5473C146.548 15.2172 146.548 15.2651 145.401 18.6148C144.014 22.6823 144.014 22.6823 145.018 22.8737C145.496 22.9694 147.361 21.4381 149.753 19.0455C153.291 15.4565 154.009 14.9301 156.687 14.2123C158.313 13.7338 160.8 13.2074 162.139 13.0639C164.578 12.7768 166.73 11.4369 166.156 10.5755C166.06 10.3363 164.912 10.0013 163.669 9.80988C158.695 9.09209 157.93 7.84792 159.7 3.34976C160.895 0.287184 160.895 6.71128e-05 159.604 6.71128e-05C158.839 6.71128e-05 157.452 1.19639 155.3 3.54117Z" fill="#030303"/>
<path d="M119.72 12.0588C118.954 12.6809 117.711 13.9251 116.946 14.8343C116.181 15.7435 113.168 18.9018 110.251 21.8208C102.934 29.0944 100.064 30.3386 85.8131 32.5398C79.2135 33.5447 77.5397 34.2625 76.7745 36.5594C76.105 38.33 76.5832 38.6171 81.2699 39.4785C89.2085 40.9619 92.5561 42.3496 93.0344 44.3116C93.4169 45.8907 92.2692 50.2453 90.0693 55.3656C87.9173 60.2944 88.0129 60.9643 90.7867 61.1558L92.9387 61.2993L97.2428 56.6097C109.294 43.5459 111.733 42.2061 127.754 39.7656C134.162 38.7607 136.027 37.995 136.793 35.9852C137.51 34.1668 136.649 33.6404 131.245 32.5877C125.793 31.5349 122.589 30.4821 121.346 29.3337C119.672 27.8502 120.294 24.1656 123.546 16.6048C125.028 13.2073 125.267 12.2981 124.789 11.7239C123.928 10.6711 121.298 10.8625 119.72 12.0588Z" fill="#030303"/>
<path d="M439.704 11.2933C388.868 15.1215 334.732 28.7595 276.436 52.4466L267.589 56.0356H243.486L219.335 55.9877L217.757 57.7104C216.848 58.6196 216.131 59.5767 216.131 59.816C216.131 60.0552 215.318 59.481 214.362 58.5718C213.357 57.6626 211.779 56.7055 210.871 56.4184C209.818 56.0835 204.51 55.9877 196.524 56.0835L183.85 56.227L181.172 57.7583L178.446 59.2896L177.347 58.0454C174.955 55.5092 174.812 55.5092 157.93 55.5092C143.918 55.5092 142.053 55.6049 140.666 56.3706C139.423 56.9927 133.206 65.5583 113.503 93.5522C90.691 126.092 87.9651 130.112 87.9651 131.739C87.9651 132.744 88.2042 134.036 88.4911 134.61C88.8259 135.136 92.6996 139.969 97.1949 145.329L105.325 155.091L101.308 158.728C95.1864 164.231 83.5654 176.146 77.6353 182.893C58.4104 204.81 46.7894 225.578 43.2026 244.528C41.9114 251.514 42.0549 261.611 43.633 267.497C45.8329 275.871 49.4675 282.331 55.3019 288.265C61.5189 294.582 67.449 298.362 76.9658 302.094C93.656 308.65 112.737 311.234 136.266 310.134C165.486 308.746 193.798 303.721 228.565 293.768C250.086 287.595 280.166 276.493 301.4 266.875C305.895 264.865 306.134 264.769 307.856 265.391C310.151 266.205 352.044 266.348 354.196 265.535C354.914 265.296 356.253 264.386 357.066 263.573L358.596 262.09L359.553 263.286C361.753 266.061 361.753 266.061 386.381 266.061C410.197 266.061 410.293 266.061 412.302 263.86C412.732 263.334 414.406 260.415 416.032 257.304C417.658 254.194 419.14 251.706 419.332 251.801C419.523 251.897 421.149 253.667 422.966 255.773C427.701 261.18 429.996 262.951 434.061 264.147C435.831 264.674 436.835 265.631 441.378 271.134C444.295 274.627 447.356 278.025 448.217 278.599C449.699 279.699 449.986 279.699 464.668 279.843C477.867 279.986 479.732 279.891 481.119 279.173C482.602 278.455 482.697 278.455 483.271 279.221C483.749 279.891 483.606 280.656 482.171 283.91C476.911 296.017 476.624 296.879 476.958 299.223C477.198 300.85 478.058 302.525 480.258 305.588C483.749 310.517 485.854 312.096 489.392 312.383C491.736 312.574 492.31 312.383 499.005 308.937C505.557 305.588 506.178 305.348 507.087 306.018C507.661 306.401 509.909 308.124 512.156 309.799C516.556 313.244 518.756 314.01 521.96 313.34C527.555 312.096 528.942 309.368 530.09 297.644C530.52 293.05 530.999 289.174 531.142 289.031C531.238 288.887 534.537 286.207 538.363 283.049C545.967 276.78 547.545 274.866 547.545 271.421C547.545 268.693 546.685 266.827 543.528 262.616C540.515 258.596 538.363 257.161 534.298 256.491C528.273 255.438 528.273 255.39 532.051 251.706C533.533 250.27 535.685 247.734 536.881 246.107C539.559 242.326 557.588 205.288 559.023 200.599C560.505 195.766 560.266 189.497 558.497 185.669C557.349 183.18 535.972 156.909 530.377 151.071C527.747 148.344 524.447 146.382 520.525 145.185C518.947 144.707 517.608 144.276 517.512 144.228C517.369 144.133 533.916 121.785 535.064 120.445C535.255 120.254 541.95 121.067 549.889 122.264C557.875 123.46 564.618 124.417 564.857 124.417C565.049 124.417 561.271 119.919 556.393 114.368C550.558 107.812 547.593 104.128 547.832 103.745C548.071 103.41 552.328 97.7154 557.349 91.1595C562.371 84.5558 566.675 78.9092 566.866 78.6221C567.248 77.9043 567.009 78 551.897 84.8908C545.776 87.7141 540.659 89.9154 540.563 89.8196C540.468 89.7239 541.233 87.5227 542.285 84.8908C553.093 57.2319 545.154 35.4111 519.569 22.6344C509.287 17.5141 498.67 14.4516 483.462 12.346C477.771 11.5325 473.467 11.3411 459.312 11.2454C449.843 11.1976 441.043 11.1976 439.704 11.2933ZM490.971 24.1178C516.412 27.5154 532.816 36.8466 538.842 51.2982C542.859 60.9644 542.763 72.0663 538.65 84.6994C536.833 90.2503 536.259 91.4466 535.733 90.6331C535.494 90.346 531.812 85.9914 527.46 80.919C521.147 73.5019 519.521 71.8749 519.282 72.5927C519.091 73.0712 518.708 79.4356 518.469 86.7571C518.182 94.0785 517.895 100.156 517.799 100.204C517.704 100.252 511.008 103.171 502.831 106.712C494.701 110.205 487.862 113.22 487.623 113.411C487.432 113.555 493.744 114.56 501.635 115.564C509.526 116.569 516.221 117.574 516.508 117.766C516.939 118.005 516.939 120.733 516.508 128.772C516.221 134.658 515.839 140.448 515.695 141.644L515.456 143.798L486.714 143.654C462.372 143.558 457.303 143.654 453.621 144.276C447.356 145.377 443.626 146.573 438.365 149.253L433.774 151.598L431.048 148.248C429.518 146.429 427.701 144.611 426.935 144.228C426.218 143.845 423.588 143.415 421.149 143.223L416.701 142.936L421.675 122.79L426.696 102.644L426.744 96.4233C426.792 87.2356 426.983 87.5706 413.975 71.9227C404.267 60.2466 402.785 58.6675 400.585 57.6147C398.098 56.4663 398.098 56.4663 379.208 56.3706C368.83 56.3227 353.192 56.227 344.441 56.227H328.611L327.416 57.3276C326.746 57.9497 324.211 61.9215 321.772 66.1325C317.564 73.454 317.325 73.789 316.607 72.9276C316.177 72.4012 313.642 69.3387 310.917 66.1325L305.991 60.2945L307.33 59.7681C346.21 44.8381 378.395 35.4589 412.828 28.9509C424.496 26.7497 440.23 24.5006 449.508 23.6871C459.503 22.8258 482.984 23.0651 490.971 24.1178ZM172.612 61.5387C172.612 61.7301 166.347 77.3779 158.695 96.3755C151.044 115.325 144.635 131.164 144.54 131.452C144.349 131.93 142.197 132.074 135.932 132.074C128.184 132.074 127.563 132.026 127.802 131.212C127.897 130.782 133.445 117.383 140.092 101.448C146.74 85.5129 152.239 72.2098 152.383 71.8749C152.574 71.3963 152 71.3006 149.896 71.3963L147.122 71.5399L139.662 89.2454L132.201 106.999L123.593 119.536L114.985 132.026L104.321 132.074C95.9037 132.074 93.7039 131.93 93.9908 131.452C94.1821 131.164 105.325 115.229 118.763 96.0884L143.201 61.2516H157.93C166.012 61.2516 172.612 61.3951 172.612 61.5387ZM210.01 62.3522C213.118 64.5055 213.596 71.492 211.11 79.292L209.866 83.2638H201.067C195.711 83.2638 192.22 83.0724 192.22 82.7853C192.22 82.546 193.08 80.1055 194.132 77.4258C195.185 74.6982 196.045 72.2098 196.045 71.8749C196.045 71.492 195.232 71.3006 193.511 71.3006H190.976L187.15 81.2062L183.324 91.1595L190.737 91.3988C195.615 91.5423 198.58 91.8773 199.297 92.2601C200.732 93.0736 202.215 96.3755 202.262 98.7203C202.262 104.463 198.532 115.229 194.18 121.881C190.928 126.81 188.346 129.298 184.855 130.925C182.464 132.026 182.081 132.074 170.364 132.074H158.361L156.878 130.877C154.009 128.437 153.722 123.412 156.113 115.804C158.217 109.104 157.356 109.583 167.399 109.583C175.96 109.583 176.007 109.583 175.721 110.588C175.529 111.162 174.477 113.937 173.329 116.856L171.273 122.072L174.142 121.929L177.06 121.785L180.79 112.215C182.846 106.951 184.52 102.357 184.52 102.022C184.568 101.591 182.798 101.448 177.347 101.448C173.138 101.448 169.743 101.256 169.169 100.921C167.878 100.204 166.395 96.854 166.395 94.4614C166.395 93.4086 166.825 90.8246 167.351 88.719C170.89 74.7939 179.212 63.2614 186.911 61.6822C187.868 61.4908 193.176 61.3473 198.676 61.3951C207.523 61.4908 208.862 61.5865 210.01 62.3522ZM238.608 62.1129C238.608 62.3522 230.143 86.8049 229.235 89.2454C228.996 89.8196 229.426 89.9632 231.721 89.9632H234.543L239.373 75.9423L244.203 61.9693L253.194 61.8258C260.272 61.7301 262.089 61.8258 261.898 62.3043C261.802 62.6393 257.785 74.2675 253.051 88.0969C248.316 101.974 243.916 114.464 243.342 115.852C240.377 122.886 235.452 129.059 231.052 131.212C228.9 132.265 228.374 132.313 216.848 132.313C206.184 132.313 204.701 132.217 203.554 131.452C201.162 129.872 200.589 128.437 200.636 123.939C200.636 120.063 201.306 116.904 203.075 112.071L203.841 110.061H212.592C217.422 110.061 221.392 110.253 221.392 110.492C221.392 110.683 220.531 113.172 219.479 115.995C218.427 118.771 217.566 121.307 217.566 121.594C217.566 121.881 218.618 122.025 220.244 121.929L222.97 121.785L226.891 111.018L230.813 100.252L219.383 100.108C211.157 100.012 208.001 99.8209 208.001 99.4381C208.001 99.0074 218.331 70.3914 221.296 62.6871L221.774 61.4908L230.191 61.6344C234.83 61.7301 238.608 61.9215 238.608 62.1129ZM300.348 63.07C303.791 65.1755 304.747 69.6258 303.408 76.8037C301.687 86.2785 297.478 96.1841 293.174 101.017L290.831 103.649L290.305 114.655C290.018 120.685 289.635 127.193 289.492 129.059L289.205 132.552H280.405H271.654L271.845 131.212C271.941 130.494 272.419 124.656 272.849 118.196L273.614 106.472L279.066 89.5325C282.079 80.2012 284.518 72.4012 284.518 72.2098C284.518 71.9706 283.37 71.7792 281.936 71.7792H279.353L269.358 102.022L259.363 132.313L250.898 132.456C246.26 132.504 242.434 132.456 242.434 132.313C242.434 132.169 246.977 118.771 252.524 102.501C258.072 86.2785 263.476 70.4393 264.528 67.3289L266.441 61.6822L282.557 61.8258C298.291 61.9693 298.674 61.9693 300.348 63.07ZM360.079 62.3043C360.079 62.6393 355.775 78.5742 350.418 97.7154L340.758 132.552H332.485C326.842 132.552 324.211 132.409 324.211 132.026C324.211 131.643 339.515 78.1914 341.236 72.5927C341.476 71.827 341.236 71.7313 338.75 71.8749L335.976 72.0184L330.859 89.7718L325.694 107.477L318.568 119.919L311.49 132.313L300.874 132.456C295.039 132.504 290.257 132.504 290.257 132.409C290.257 132.265 321.485 78.0479 329.759 63.7399L330.954 61.7301H345.493C356.827 61.7301 360.079 61.8736 360.079 62.3043ZM398.528 63.07C401.589 64.8405 402.928 69.7693 402.115 76.1816C401.876 78.0957 398.72 91.6859 395.133 106.329L388.581 133.031H379.351C374.282 133.031 370.122 132.887 370.122 132.696C370.122 132.504 373.565 119.106 377.773 102.836C381.982 86.6135 385.425 73.0712 385.425 72.7841C385.425 72.4491 384.421 72.2577 382.795 72.2577C381.36 72.2577 380.164 72.3534 380.164 72.4491C380.164 73.0233 364.765 131.069 364.383 131.93C363.952 133.031 363.809 133.031 355.296 133.031C347.884 133.031 346.688 132.935 346.688 132.313C346.688 131.739 361.848 75.8466 365.1 64.362L365.77 61.9693L381.456 62.1129C395.324 62.2086 397.285 62.3522 398.528 63.07ZM149.8 144.611C149.944 145.233 150.326 147.817 150.661 150.401C151.044 153.894 151.426 155.187 152 155.521C152.478 155.761 154.965 156.287 157.596 156.766C160.178 157.196 162.521 157.723 162.713 157.914C162.904 158.106 160.513 160.355 157.309 162.891C154.152 165.475 151.57 167.724 151.57 167.867C151.522 169.829 150.135 180.979 149.896 181.362C149.753 181.601 147.696 180.357 145.257 178.491C142.914 176.625 140.762 175.141 140.523 175.141C140.284 175.141 137.653 176.433 134.688 178.012C131.675 179.591 129.093 180.883 128.95 180.883C128.28 180.883 128.71 179.544 131.293 173.562L133.971 167.389L130.815 162.652C127.802 158.106 127.228 156.957 128.041 156.957C129.141 156.957 140.284 155.474 140.618 155.282C140.81 155.139 142.723 152.459 144.875 149.301C146.979 146.142 148.94 143.558 149.131 143.558C149.37 143.558 149.657 144.037 149.8 144.611ZM269.119 150.497C269.215 150.593 265.771 156.861 261.42 164.374L253.577 178.108L233.3 178.012C222.157 178.012 213.023 177.917 212.927 177.869C212.879 177.773 214.983 174.088 217.566 169.686C220.196 165.236 222.348 161.551 222.348 161.455C222.348 161.36 219.335 161.264 215.701 161.264H209.005L200.78 174.95C194.419 185.621 192.746 188.731 193.224 189.066C193.606 189.306 202.741 189.497 213.596 189.497H233.3L230.095 194.856L226.843 200.264L206.04 200.407L185.285 200.551L176.964 214.38L168.643 228.258H147.887C135.645 228.258 127.18 228.066 127.276 227.827C127.371 227.588 132.488 219.213 138.658 209.164L149.896 190.98L151.331 191.22C153.435 191.602 156.639 190.167 157.739 188.348C158.409 187.296 158.839 185.142 159.222 181.123C159.556 177.964 159.987 174.998 160.226 174.567C160.465 174.136 162.904 171.887 165.678 169.638C171.464 164.901 172.229 163.417 171.225 159.685C170.651 157.627 170.651 157.483 172.373 154.756C173.377 153.225 174.429 151.502 174.764 150.975C175.338 150.018 175.816 150.018 222.109 150.162C247.838 150.21 269.023 150.353 269.119 150.497ZM369.069 150.975C369.165 151.071 359.744 168.585 348.123 189.928L326.937 228.736H306.182H285.427L286.622 226.679C289.97 220.888 322.442 162.891 322.633 162.364C322.824 161.886 321.485 161.742 316.177 161.742H309.482L298.53 181.218L287.579 200.742L271.128 214.715L254.629 228.688L228.661 228.736C212.688 228.736 202.741 228.545 202.836 228.306C202.932 228.018 223.878 210.361 249.368 189.018L295.757 150.162L332.341 150.497C352.475 150.688 369.022 150.88 369.069 150.975ZM423.062 151.31C422.918 151.645 413.688 169.255 402.498 190.454L382.221 228.975L361.513 229.119C341.954 229.215 340.854 229.167 341.141 228.401C341.332 227.923 350.753 210.265 362.135 189.162L382.795 150.784L403.072 150.736C419.092 150.736 423.253 150.88 423.062 151.31ZM512.156 151.167C518.134 151.741 521.817 153.129 524.638 155.952C528.034 159.302 528.799 163.656 527.077 169.255C525.499 174.232 507.996 209.595 505.365 213.136C502.018 217.587 497.044 221.558 491.353 224.429C483.845 228.114 480.593 228.832 469.546 229.071L460.172 229.31L456.873 235.962L453.621 242.613H440.565C433.392 242.613 427.509 242.47 427.509 242.279C427.509 242.135 429.04 239.12 430.857 235.579L434.205 229.215H426.935C422.918 229.215 418.232 228.975 416.51 228.688C410.245 227.683 405.415 224.477 404.076 220.362C403.215 217.826 403.693 212.753 405.08 209.595C406.898 205.384 424.783 171.265 426.409 168.872C432.579 159.924 444.726 152.746 456.347 151.263C460.364 150.736 506.513 150.688 512.156 151.167ZM126.176 166.336L127.228 168.059L124.789 173.658C123.498 176.768 122.398 179.735 122.398 180.309C122.398 181.936 123.211 183.611 125.315 186.434C128.997 191.267 130.815 191.507 137.94 187.966C141.623 186.099 143.105 185.621 143.488 186.004C143.87 186.387 140.81 191.698 131.962 206.054C119.002 226.966 118.668 227.731 120.15 231.129C121.011 233.091 145.927 262.903 147.887 264.339C149.227 265.344 149.8 265.344 172.516 265.344H195.806L197.337 264.243C198.293 263.573 200.636 260.223 203.506 255.486C206.04 251.275 208.288 247.925 208.527 247.973C208.718 248.069 211.827 251.61 215.414 255.917C219 260.223 222.635 264.147 223.448 264.674C224.931 265.535 226.126 265.583 253.481 265.583H281.984L283.37 264.53C284.757 263.477 293.318 256.252 295.326 254.481L296.378 253.572L299.822 257.687C301.734 259.936 303.169 261.898 303.074 262.042C302.643 262.425 278.779 270.32 268.497 273.431C216.418 289.222 162.426 297.692 126.463 295.73C110.012 294.869 101.021 293.385 90.8345 289.988C83.9479 287.691 80.6003 286.064 75.0528 282.427C64.3883 275.345 59.9886 267.593 60.0364 255.773C60.132 236.823 74.2877 213.232 102.551 184.951C109.916 177.534 124.072 164.613 124.837 164.613C125.028 164.613 125.65 165.379 126.176 166.336ZM516.221 246.059C516.604 248.404 518.373 260.798 518.373 261.276C518.373 262.185 520.525 262.807 527.364 263.956C534.251 265.152 535.781 265.631 534.872 266.444C534.585 266.683 530.903 269.698 526.647 273.191C519.234 279.221 518.899 279.556 518.66 281.518C518.23 284.485 516.939 297.644 516.939 298.649C516.939 300.324 515.504 299.606 509.622 295.012C506.417 292.524 503.405 290.466 502.974 290.466C502.496 290.466 498.67 292.285 494.414 294.534C487.288 298.266 485.375 299.08 485.375 298.314C485.375 298.123 487.097 294.055 489.201 289.222C491.305 284.437 493.027 280.034 493.027 279.508C493.027 278.982 491.066 275.584 488.723 271.995C486.332 268.358 484.467 265.152 484.562 264.913C484.658 264.626 488.388 263.908 492.884 263.382C497.379 262.807 501.587 262.233 502.209 262.09C503.022 261.85 505.031 259.266 509.191 253.141C512.443 248.404 515.265 244.528 515.504 244.528C515.743 244.528 516.078 245.245 516.221 246.059Z" fill="#030303"/>
<path d="M460.22 189.593C452.616 204.666 446.352 217.299 446.256 217.586C446.112 218.065 447.691 218.208 452.808 218.208H459.551L473.419 190.454C481.023 175.189 487.288 162.604 487.288 162.46C487.288 162.316 484.323 162.221 480.641 162.221H474.041L460.22 189.593Z" fill="#030303"/>
<path d="M568.922 28.4724L564.188 34.8368L557.206 36.1288C553.332 36.8466 549.937 37.5644 549.602 37.7558C549.315 37.8994 551.658 39.4785 554.862 41.2491L560.697 44.4552L561.175 51.5374L561.653 58.5718L566.34 52.3031L571.027 46.0344L578.057 44.7423C581.93 44.0245 585.326 43.3067 585.661 43.1153C585.995 42.9718 583.556 41.3448 580.257 39.5264L574.326 36.2724L574.279 33.8319C574.231 32.4442 574.087 29.2859 573.896 26.7018L573.609 22.108L568.922 28.4724Z" fill="#030303"/>
<path d="M63.5756 30.9129C60.9932 33.4969 59.7498 34.2147 56.8804 34.6932C52.2894 35.3632 51.7155 36.2724 55.2066 37.2294C57.789 37.8994 58.1238 38.5693 57.1673 40.9141C55.637 44.5031 56.6413 44.4552 60.3236 40.8184C62.8583 38.33 63.2887 38.0908 66.7798 37.3251C71.0839 36.4159 71.7056 35.4589 68.4536 34.7889C65.9668 34.3104 65.5842 33.4969 66.5885 30.8172C67.3058 28.8552 67.3058 28.7116 66.5407 28.7116C66.0624 28.7116 64.7234 29.7165 63.5756 30.9129Z" fill="#030303"/>
<path d="M19.1478 277.403C16.661 280.752 14.6046 283.576 14.5568 283.623C14.5568 283.671 11.0179 284.389 6.7616 285.25C-2.22915 286.973 -2.13351 286.351 6.33119 290.897C8.86581 292.285 11.0179 293.673 11.0179 293.96C11.0657 294.295 11.2091 297.501 11.4004 301.09L11.6874 307.693L16.4697 301.377L21.252 295.012L28.7602 293.577C32.9208 292.811 36.3163 292.046 36.3163 291.902C36.3163 291.758 33.5904 290.179 30.3384 288.409L24.3605 285.155L24.3127 280.513C24.3127 277.977 24.1214 274.819 23.9779 273.574L23.6432 271.277L19.1478 277.403Z" fill="#030303"/>
</svg>
